<svg xmlns="http://www.w3.org/2000/svg" width="182" height="61" fill="none" viewBox="0 0 182 61"><path fill="#a6a6a6" d="M167.073 0H15.21c-.554 0-1.1 0-1.653.003-.462.003-.92.012-1.387.02a20 20 0 0 0-3.025.266c-.999.17-1.966.488-2.87.947a9.7 9.7 0 0 0-2.443 1.779 9.5 9.5 0 0 0-1.779 2.447 10 10 0 0 0-.943 2.873c-.168 1-.259 2.01-.27 3.022-.015.463-.016.928-.024 1.39V47.64c.008.469.01.923.023 1.392.012 1.013.103 2.023.27 3.022.167 1 .485 1.97.944 2.875a9.4 9.4 0 0 0 1.779 2.436 9.5 9.5 0 0 0 2.443 1.78c.904.46 1.871.78 2.87.952q1.502.247 3.025.267c.466.01.925.016 1.387.016.552.003 1.1.003 1.653.003h151.863c.542 0 1.094 0 1.636-.003.46 0 .932-.006 1.392-.016a20 20 0 0 0 3.019-.267 10.3 10.3 0 0 0 2.881-.952 9.5 9.5 0 0 0 2.441-1.78 9.7 9.7 0 0 0 1.784-2.436 10 10 0 0 0 .934-2.875c.169-1 .262-2.01.28-3.022.006-.469.006-.923.006-1.392.012-.548.012-1.094.012-1.651V14.396c0-.553 0-1.102-.012-1.649q.001-.694-.006-1.39a20 20 0 0 0-.28-3.022 10 10 0 0 0-.934-2.873 9.77 9.77 0 0 0-4.225-4.226 10.2 10.2 0 0 0-2.881-.947 20 20 0 0 0-3.019-.267c-.46-.007-.932-.016-1.392-.019C168.167 0 167.615 0 167.073 0"/><path fill="#000" d="M13.565 59.062c-.46 0-.909-.006-1.365-.016a19 19 0 0 1-2.822-.246 8.9 8.9 0 0 1-2.5-.828 8.2 8.2 0 0 1-2.11-1.534 8 8 0 0 1-1.54-2.108 8.6 8.6 0 0 1-.82-2.502 19 19 0 0 1-.251-2.83 125 125 0 0 1-.022-1.379V12.747s.013-1.043.022-1.35c.011-.947.095-1.892.25-2.826.144-.873.42-1.72.82-2.51a8.1 8.1 0 0 1 1.533-2.11 8.4 8.4 0 0 1 2.117-1.543 8.8 8.8 0 0 1 2.495-.821 19 19 0 0 1 2.832-.248l1.362-.018h155.136l1.379.019c.94.011 1.878.093 2.805.245a9 9 0 0 1 2.522.827 8.44 8.44 0 0 1 3.646 3.654 8.7 8.7 0 0 1 .808 2.489q.235 1.415.262 2.848c.005.428.005.887.005 1.344.012.566.012 1.105.012 1.648V45.99c0 .548 0 1.083-.012 1.623 0 .49 0 .94-.006 1.403a19 19 0 0 1-.258 2.798 8.7 8.7 0 0 1-.815 2.521 8.3 8.3 0 0 1-1.533 2.092 8.2 8.2 0 0 1-2.113 1.544 8.9 8.9 0 0 1-2.518.83 19 19 0 0 1-2.822.246c-.442.01-.905.016-1.354.016l-1.637.003z"/><path fill="#fff" d="M38.207 30.645a7.47 7.47 0 0 1 3.557-6.267 7.65 7.65 0 0 0-6.025-3.258c-2.535-.266-4.992 1.517-6.284 1.517-1.317 0-3.306-1.49-5.447-1.446a8.02 8.02 0 0 0-6.752 4.118c-2.92 5.054-.742 12.483 2.054 16.569 1.4 2 3.035 4.236 5.175 4.156 2.093-.087 2.875-1.335 5.403-1.335 2.504 0 3.238 1.335 5.42 1.285 2.248-.037 3.663-2.01 5.013-4.03a16.6 16.6 0 0 0 2.293-4.668 7.22 7.22 0 0 1-4.407-6.64m-4.124-12.213a7.36 7.36 0 0 0 1.682-5.27 7.48 7.48 0 0 0-4.842 2.506 7 7 0 0 0-1.727 5.074 6.19 6.19 0 0 0 4.887-2.31M64.675 40.97H57.53l-1.716 5.066h-3.027l6.768-18.746H62.7l6.768 18.746h-3.079zm-6.405-2.34h5.663l-2.792-8.223h-.078zm25.813.574c0 4.247-2.273 6.975-5.704 6.975a4.63 4.63 0 0 1-4.3-2.39h-.065v6.769H71.21V32.369h2.715v2.273h.052a4.85 4.85 0 0 1 4.352-2.416c3.469 0 5.755 2.742 5.755 6.977m-2.883 0c0-2.767-1.43-4.587-3.612-4.587-2.144 0-3.585 1.858-3.585 4.587 0 2.753 1.441 4.597 3.585 4.597 2.182 0 3.612-1.805 3.612-4.598m17.925.002c0 4.247-2.273 6.975-5.704 6.975a4.63 4.63 0 0 1-4.3-2.39h-.065v6.769h-2.805V32.369h2.715v2.273h.052a4.85 4.85 0 0 1 4.352-2.416c3.469 0 5.755 2.742 5.755 6.977m-2.883 0c0-2.767-1.43-4.587-3.612-4.587-2.144 0-3.585 1.858-3.585 4.587 0 2.753 1.441 4.597 3.585 4.597 2.182 0 3.612-1.805 3.612-4.598m12.826 1.611c.208 1.859 2.014 3.08 4.482 3.08 2.364 0 4.065-1.221 4.065-2.897 0-1.455-1.026-2.327-3.455-2.924l-2.43-.585c-3.442-.831-5.04-2.441-5.04-5.053 0-3.235 2.819-5.456 6.821-5.456 3.961 0 6.677 2.221 6.768 5.456h-2.832c-.169-1.871-1.716-3-3.976-3s-3.806 1.142-3.806 2.805c0 1.325.988 2.105 3.404 2.702l2.065.507c3.846.91 5.445 2.455 5.445 5.197 0 3.507-2.794 5.703-7.237 5.703-4.158 0-6.964-2.145-7.146-5.535zm17.565-11.678v3.234h2.599v2.222h-2.599v7.534c0 1.17.52 1.716 1.663 1.716a9 9 0 0 0 .923-.065v2.209a7.7 7.7 0 0 1-1.559.13c-2.767 0-3.846-1.04-3.846-3.69V34.59h-1.987v-2.222h1.987v-3.234zm4.104 10.068c0-4.3 2.533-7.002 6.482-7.002 3.963 0 6.484 2.702 6.484 7.002 0 4.312-2.508 7.002-6.484 7.002-3.974 0-6.482-2.69-6.482-7.002m10.107 0c0-2.95-1.351-4.69-3.625-4.69s-3.623 1.754-3.623 4.69c0 2.962 1.35 4.69 3.623 4.69s3.625-1.728 3.625-4.69m5.171-6.834h2.675v2.326h.065a3.26 3.26 0 0 1 3.288-2.469q.486-.001.961.105v2.624a4 4 0 0 0-1.261-.17 2.827 2.827 0 0 0-2.923 3.145v8.106h-2.805zm19.924 9.653c-.377 2.48-2.794 4.184-5.885 4.184-3.976 0-6.444-2.664-6.444-6.938 0-4.287 2.481-7.067 6.326-7.067 3.781 0 6.159 2.597 6.159 6.741v.961h-9.653v.17a3.57 3.57 0 0 0 .965 2.765 3.56 3.56 0 0 0 2.712 1.106 3.09 3.09 0 0 0 3.156-1.922zm-9.483-4.08h6.832a3.27 3.27 0 0 0-.918-2.466 3.3 3.3 0 0 0-2.434-1.002 3.46 3.46 0 0 0-2.463 1.01 3.46 3.46 0 0 0-1.017 2.459M57.918 13.18a3.983 3.983 0 0 1 4.238 4.475c0 2.878-1.555 4.532-4.238 4.532h-3.254V13.18zm-1.855 7.733h1.698a2.833 2.833 0 0 0 2.97-3.24 2.84 2.84 0 0 0-2.97-3.22h-1.698zm7.673-2.127a3.218 3.218 0 0 1 4.508-3.252 3.22 3.22 0 0 1 1.903 3.252 3.22 3.22 0 1 1-6.411 0m5.031 0c0-1.474-.662-2.335-1.823-2.335-1.166 0-1.822.861-1.822 2.335 0 1.485.656 2.34 1.822 2.34 1.161 0 1.823-.86 1.823-2.34m9.902 3.401h-1.392l-1.404-5.006h-.107l-1.399 5.006H72.99l-1.874-6.797h1.36l1.219 5.186h.1l1.397-5.186h1.287l1.398 5.186h.106l1.212-5.186h1.341zm3.444-6.797h1.292v1.08h.1a2.035 2.035 0 0 1 2.028-1.211 2.21 2.21 0 0 1 2.353 2.528v4.4h-1.341v-4.063c0-1.093-.475-1.636-1.467-1.636a1.56 1.56 0 0 0-1.623 1.723v3.976h-1.342zm7.91-2.654h1.342v9.451h-1.342zm3.207 6.05a3.22 3.22 0 1 1 6.412 0 3.222 3.222 0 1 1-6.412 0m5.031 0c0-1.474-.661-2.335-1.823-2.335-1.166 0-1.822.861-1.822 2.335 0 1.485.656 2.34 1.822 2.34 1.162 0 1.823-.86 1.823-2.34m2.792 1.479c0-1.223.911-1.929 2.528-2.03l1.841-.105v-.587c0-.718-.474-1.123-1.391-1.123-.749 0-1.268.275-1.417.755h-1.299c.137-1.167 1.236-1.916 2.778-1.916 1.704 0 2.665.848 2.665 2.284v4.645h-1.292v-.956h-.106a2.29 2.29 0 0 1-2.041 1.067 2.054 2.054 0 0 1-2.266-2.034m4.369-.58v-.569l-1.66.106c-.936.063-1.36.381-1.36.98 0 .612.53.968 1.26.968a1.6 1.6 0 0 0 1.76-1.486m3.099-.898c0-2.148 1.105-3.509 2.822-3.509a2.24 2.24 0 0 1 2.085 1.193h.1v-3.734h1.341v9.451h-1.285v-1.074h-.106a2.36 2.36 0 0 1-2.135 1.186c-1.729 0-2.822-1.36-2.822-3.513m1.386 0c0 1.441.68 2.309 1.816 2.309 1.131 0 1.83-.88 1.83-2.303 0-1.417-.706-2.31-1.83-2.31-1.129 0-1.816.874-1.816 2.304m10.512 0a3.224 3.224 0 0 1 4.509-3.252 3.23 3.23 0 0 1 1.903 3.252 3.22 3.22 0 0 1-.821 2.476 3.22 3.22 0 0 1-5.591-2.476m5.032 0c0-1.474-.662-2.335-1.824-2.335-1.166 0-1.822.861-1.822 2.335 0 1.485.656 2.34 1.822 2.34 1.162 0 1.824-.86 1.824-2.34m3.18-3.396h1.291v1.08h.101a2.03 2.03 0 0 1 2.028-1.211 2.212 2.212 0 0 1 2.353 2.528v4.4h-1.342v-4.063c0-1.093-.474-1.636-1.467-1.636a1.56 1.56 0 0 0-1.55 1.06 1.6 1.6 0 0 0-.073.663v3.976h-1.341zm13.354-1.693v1.724h1.472v1.13h-1.472v3.495c0 .712.293 1.024.961 1.024q.257 0 .511-.031v1.117a4.4 4.4 0 0 1-.729.069c-1.492 0-2.086-.525-2.086-1.836v-3.838h-1.08v-1.13h1.08v-1.724zm3.304-.961h1.33v3.746h.106a2.09 2.09 0 0 1 2.073-1.217 2.236 2.236 0 0 1 2.256 1.56c.1.315.128.647.085.974v4.388h-1.343V18.13c0-1.086-.506-1.636-1.454-1.636a1.587 1.587 0 0 0-1.711 1.723v3.97h-1.342zm13.673 7.616a2.756 2.756 0 0 1-2.945 1.967 3.1 3.1 0 0 1-2.383-1.028 3.07 3.07 0 0 1-.757-2.481 3.14 3.14 0 0 1 .756-2.49 3.15 3.15 0 0 1 2.378-1.061c1.891 0 3.032 1.292 3.032 3.427v.468h-4.8v.075a1.795 1.795 0 0 0 1.811 1.947 1.63 1.63 0 0 0 1.617-.824zm-4.719-2.19h3.434a1.65 1.65 0 0 0-1.006-1.636 1.65 1.65 0 0 0-.668-.125 1.74 1.74 0 0 0-1.76 1.76"/></svg>