<svg xmlns="http://www.w3.org/2000/svg" width="70" height="56" fill="none" viewBox="0 0 70 56"><path stroke="#b7a7ff" stroke-linecap="round" stroke-width="2.715" d="M2 52.015c13.282 2.613 23.521 4.275 33.685-5.888 4.85-4.85 6.03-11.403 2.605-17.566-6.23-11.214-18.038 5.677-9.362 11.1 15.906 9.941 30.075-9.844 32.334-23.647.658-4.023 1.332-8.61 1.544-12.644.184-3.498 1.103.656 1.544 1.93.818 2.362 2.193 4.255 2.992 6.564 1.398 4.039-.33.338-.868-1.545C64.93 4.92 64.828-.1 59.33 5.107c-1.106 1.048-7.186 5.951-6.08 6.081 3.135.369 6.622 2.434 9.555 2.606 4.014.236 6.224 1.616.869-1.062-1.748-.873-3.467-1.444-5.212-2.22-2.876-1.278 1.21-.266 1.544 0 .969.775 3.626 1.14 1.062 0-.66-.293-3.483-1.061-2.606-1.061 2.767 0 6.408 2.763 5.405.868-.843-1.592-1.937-1.839-3.668-1.737-.59.035-2.733 1.737-1.737 1.737"/></svg>