<svg xmlns="http://www.w3.org/2000/svg" width="20" height="20" fill="none" viewBox="0 0 20 20"><path fill="#1967d2" d="M18.493 0H15.24v4.711H20V1.328c.001 0-.235-1.2-1.506-1.328m-3.251 19.978v.021L20 15.29h-.043z"/><path fill="#fbbc05" d="M20 15.289v-.043l-.043.043zm0-10.578h-4.757v10.535H20z"/><path fill="#ea4335" d="M19.957 15.289h-4.714v4.689zm-4.714 0h4.714l.043-.043h-4.757z"/><path fill="#34a853" d="M15.231 19.99h.011v-.012zM4.65 15.246v4.744h10.58l.012-4.744z"/><path fill="#34a853" d="M15.243 15.289v-.043l-.012 4.744.011-.012z"/><path fill="#188038" d="M0 15.246v3.298c.043 1.07 1.2 1.446 1.2 1.446h3.45v-4.744z"/><path fill="#4285f4" d="M4.65 4.711h10.593V0H1.333S.085.128 0 1.456v13.79h4.65z"/><path fill="#4285f4" d="M8.116 13.114q-.364 0-.701-.095a2.1 2.1 0 0 1-.606-.284 2.2 2.2 0 0 1-.494-.49 2.3 2.3 0 0 1-.32-.68l1.065-.422q.113.43.38.654.269.215.676.215.18 0 .346-.052a.9.9 0 0 0 .285-.163.8.8 0 0 0 .19-.241.7.7 0 0 0 .079-.327.7.7 0 0 0-.286-.594q-.277-.215-.77-.215h-.51V9.395h.467q.172 0 .337-.043a.9.9 0 0 0 .286-.129.64.64 0 0 0 .199-.232.7.7 0 0 0 .078-.336.6.6 0 0 0-.208-.473q-.208-.19-.563-.19-.38 0-.588.207a1.1 1.1 0 0 0-.277.447l-1.039-.421q.078-.216.234-.44.156-.231.39-.413a2 2 0 0 1 .562-.3q.32-.121.736-.121.424 0 .77.12.355.12.606.336a1.43 1.43 0 0 1 .528 1.119q0 .258-.07.465-.06.206-.164.37a1.3 1.3 0 0 1-.51.465v.069q.414.163.683.525.277.36.277.912 0 .387-.147.715a1.7 1.7 0 0 1-.424.56q-.268.24-.65.37a2.5 2.5 0 0 1-.847.137m4.134-.138V8.414l-1.046.439-.416-.955 1.74-.81h.857v5.888z"/></svg>