<svg xmlns="http://www.w3.org/2000/svg" width="205" height="61" fill="none" viewBox="0 0 205 61"><path fill="#000" d="M196.704 60.383H8.007c-4.227 0-7.548-3.321-7.548-7.548V7.548C.459 3.32 3.78 0 8.007 0h188.697c4.226 0 7.547 3.321 7.547 7.548v45.287c0 4.227-3.321 7.548-7.547 7.548"/><path fill="#a6a6a6" d="M196.704 1.208c3.472 0 6.34 2.868 6.34 6.34v45.287c0 3.472-2.868 6.34-6.34 6.34H8.007c-3.472 0-6.34-2.868-6.34-6.34V7.548c0-3.472 2.868-6.34 6.34-6.34zm0-1.208H8.007C3.78 0 .459 3.472.459 7.548v45.287c0 4.227 3.321 7.548 7.548 7.548h188.697c4.226 0 7.547-3.321 7.547-7.548V7.548c0-4.076-3.321-7.548-7.547-7.548"/><path fill="#fff" stroke="#fff" stroke-miterlimit="10" stroke-width=".302" d="M72.013 15.398c0 1.207-.302 2.264-1.057 3.019-.906.906-1.963 1.358-3.321 1.358s-2.416-.452-3.321-1.358-1.359-1.963-1.359-3.321.453-2.416 1.359-3.321 1.962-1.359 3.32-1.359q.907 0 1.812.453c.604.302 1.057.604 1.359 1.057l-.755.754c-.604-.754-1.358-1.056-2.415-1.056-.906 0-1.812.302-2.416 1.056-.754.604-1.056 1.51-1.056 2.567 0 1.056.302 1.962 1.056 2.566.755.604 1.51 1.057 2.416 1.057 1.056 0 1.811-.302 2.566-1.057A2.5 2.5 0 0 0 70.956 16h-3.321v-1.207h4.377zm6.944-3.774H74.88v2.868h3.774v1.057H74.88v2.868h4.076v1.207h-5.284v-9.057h5.284zm4.981 8h-1.207v-8h-2.567v-1.057h6.34v1.057h-2.566zm6.944 0v-9.057h1.208v9.057zm6.34 0h-1.207v-8h-2.567v-1.057h6.19v1.057H97.07v8zm14.341-1.207c-.905.906-1.962 1.358-3.321 1.358-1.358 0-2.415-.452-3.321-1.358s-1.358-1.963-1.358-3.321.452-2.416 1.358-3.321 1.963-1.359 3.321-1.359 2.416.453 3.321 1.359 1.359 1.962 1.359 3.32c0 1.36-.453 2.416-1.359 3.322Zm-5.736-.755c.604.604 1.51 1.057 2.415 1.057.906 0 1.812-.302 2.416-1.057a3.65 3.65 0 0 0 1.056-2.566c0-1.057-.302-1.963-1.056-2.567-.604-.603-1.51-1.056-2.416-1.056s-1.811.302-2.415 1.056a3.64 3.64 0 0 0-1.057 2.567c0 1.056.302 1.962 1.057 2.566Zm8.755 1.962v-9.057h1.359l4.378 7.095v-7.095h1.208v9.057h-1.208l-4.68-7.396v7.396z"/><path fill="#fff" d="M103.26 32.909c-3.623 0-6.49 2.717-6.49 6.491a6.443 6.443 0 0 0 6.49 6.491c3.623 0 6.492-2.717 6.492-6.49 0-3.926-2.869-6.492-6.492-6.492m0 10.265c-1.962 0-3.623-1.66-3.623-3.925s1.661-3.925 3.623-3.925 3.623 1.51 3.623 3.925c0 2.264-1.66 3.925-3.623 3.925M89.221 32.91c-3.623 0-6.49 2.717-6.49 6.491a6.443 6.443 0 0 0 6.49 6.491c3.623 0 6.492-2.717 6.492-6.49 0-3.926-2.869-6.492-6.492-6.492m0 10.265c-1.962 0-3.623-1.66-3.623-3.925s1.661-3.925 3.623-3.925 3.623 1.51 3.623 3.925c0 2.264-1.66 3.925-3.623 3.925m-16.756-8.303v2.718h6.491c-.15 1.51-.755 2.717-1.51 3.472-.905.905-2.415 1.962-4.98 1.962-4.077 0-7.096-3.17-7.096-7.246s3.17-7.246 7.095-7.246c2.114 0 3.774.906 4.982 1.963l1.962-1.963c-1.66-1.51-3.774-2.717-6.793-2.717-5.434 0-10.114 4.529-10.114 9.963 0 5.435 4.68 9.963 10.114 9.963 3.02 0 5.133-.905 6.944-2.868 1.812-1.811 2.415-4.378 2.415-6.34 0-.604 0-1.208-.15-1.66zM141 36.985c-.604-1.51-2.114-4.076-5.435-4.076s-6.038 2.566-6.038 6.491c0 3.623 2.717 6.491 6.34 6.491 2.868 0 4.68-1.811 5.284-2.868l-2.114-1.51c-.754 1.057-1.66 1.812-3.17 1.812-1.509 0-2.415-.604-3.17-1.962l8.605-3.623zm-8.756 2.113c0-2.415 1.963-3.774 3.321-3.774 1.057 0 2.114.604 2.416 1.359zm-7.095 6.19h2.868v-18.87h-2.868zm-4.528-11.02c-.755-.755-1.963-1.51-3.472-1.51-3.171 0-6.19 2.868-6.19 6.491s2.868 6.34 6.19 6.34c1.509 0 2.717-.754 3.321-1.51h.151v.907c0 2.415-1.359 3.774-3.472 3.774-1.661 0-2.869-1.208-3.171-2.265l-2.415 1.057c.755 1.66 2.566 3.774 5.736 3.774 3.322 0 6.039-1.963 6.039-6.642V33.21h-2.717zm-3.322 8.906c-1.962 0-3.623-1.66-3.623-3.925s1.661-3.925 3.623-3.925 3.472 1.66 3.472 3.925-1.509 3.925-3.472 3.925m36.834-16.756h-6.793v18.87h2.868v-7.095h3.925c3.17 0 6.189-2.265 6.189-5.888s-3.019-5.887-6.189-5.887m.151 9.057h-4.076v-6.49h4.076c2.113 0 3.321 1.81 3.321 3.17-.151 1.66-1.359 3.32-3.321 3.32m17.36-2.717c-2.113 0-4.227.906-4.981 2.868l2.566 1.057c.604-1.057 1.509-1.359 2.566-1.359 1.51 0 2.868.906 3.019 2.416v.15c-.453-.301-1.66-.754-2.868-.754-2.717 0-5.434 1.51-5.434 4.227 0 2.566 2.264 4.226 4.679 4.226 1.963 0 2.868-.905 3.623-1.811h.151v1.51h2.717v-7.246c-.302-3.322-2.868-5.284-6.038-5.284m-.302 10.416c-.906 0-2.264-.453-2.264-1.66 0-1.51 1.66-1.963 3.019-1.963 1.208 0 1.811.302 2.566.604-.302 1.811-1.811 3.02-3.321 3.02m15.851-9.963-3.17 8.152h-.151l-3.321-8.152h-3.02l4.982 11.473-2.868 6.34h2.868l7.699-17.813zm-25.361 12.077h2.868v-18.87h-2.868z"/><path fill="url(#a)" d="M16.159 11.322c-.453.453-.604 1.207-.604 2.113v33.362c0 .906.302 1.66.755 2.113l.15.151 18.72-18.719v-.301z"/><path fill="url(#b)" d="m41.217 36.683-6.19-6.19v-.452l6.19-6.19.15.152 7.398 4.226c2.113 1.208 2.113 3.17 0 4.378z"/><path fill="url(#c)" d="m41.368 36.532-6.34-6.34-18.87 18.87c.755.754 1.812.754 3.17.15z"/><path fill="url(#d)" d="m41.368 23.851-22.04-12.53c-1.358-.754-2.415-.603-3.17.152l18.87 18.719z"/><path fill="#000" d="M41.217 36.38 19.328 48.76c-1.207.755-2.264.604-3.019 0l-.15.15.15.152c.755.604 1.812.755 3.02 0z" opacity=".2"/><path fill="#000" d="M16.159 48.76c-.453-.454-.604-1.209-.604-2.114v.15c0 .907.302 1.661.755 2.114v-.15zm32.606-16.606-7.548 4.227.151.15 7.397-4.226c1.057-.604 1.51-1.359 1.51-2.114 0 .755-.604 1.359-1.51 1.963" opacity=".12"/><path fill="#fff" d="m19.329 11.473 29.436 16.756c.906.604 1.51 1.207 1.51 1.962 0-.755-.453-1.51-1.51-2.113L19.33 11.322c-2.114-1.208-3.774-.302-3.774 2.113v.151c0-2.264 1.66-3.321 3.774-2.113" opacity=".25"/><defs><linearGradient id="a" x1="33.368" x2="8.032" y1="13.148" y2="38.482" gradientUnits="userSpaceOnUse"><stop stop-color="#00a0ff"/><stop offset=".007" stop-color="#00a1ff"/><stop offset=".26" stop-color="#00beff"/><stop offset=".512" stop-color="#00d2ff"/><stop offset=".76" stop-color="#00dfff"/><stop offset="1" stop-color="#00e3ff"/></linearGradient><linearGradient id="b" x1="51.533" x2="15.006" y1="30.193" y2="30.193" gradientUnits="userSpaceOnUse"><stop stop-color="#ffe000"/><stop offset=".409" stop-color="#ffbd00"/><stop offset=".775" stop-color="orange"/><stop offset="1" stop-color="#ff9c00"/></linearGradient><linearGradient id="c" x1="37.937" x2="3.582" y1="33.657" y2="68.012" gradientUnits="userSpaceOnUse"><stop stop-color="#ff3a44"/><stop offset="1" stop-color="#c31162"/></linearGradient><linearGradient id="d" x1="11.474" x2="26.816" y1=".266" y2="15.608" gradientUnits="userSpaceOnUse"><stop stop-color="#32a071"/><stop offset=".069" stop-color="#2da771"/><stop offset=".476" stop-color="#15cf74"/><stop offset=".801" stop-color="#06e775"/><stop offset="1" stop-color="#00f076"/></linearGradient></defs></svg>