<svg xmlns="http://www.w3.org/2000/svg" width="96" height="96" fill="none" viewBox="0 0 96 96"><g filter="url(#a)"><path fill="#fbbc05" d="M15 70.68c0 2.387 1.95 4.32 4.352 4.32h.063C16.975 75 15 73.067 15 70.68M52.402 37.2v11.279l15.206-12.265V25.32c0-2.387-1.95-4.32-4.352-4.32H30.313l-.03 16.2z"/><path fill="#34a853" d="M52.402 59.762H30.247l-.026 15.239h33.035c2.406 0 4.352-1.933 4.352-4.32v-9.835L52.402 48.483z"/><path fill="#ea4335" d="M30.313 21 15 37.2h15.287z"/><path fill="#1967d2" d="M15 59.761V70.68c0 2.387 1.976 4.32 4.415 4.32h10.806l.026-15.239z"/><path fill="#4285f4" d="M30.287 37.2H15v22.56h15.247z"/><path fill="#34a853" d="M80.978 66.84V29.76c-.857-4.921-6.254.72-6.254.72l-7.112 5.735v24.627l10.18 8.277c3.676.482 3.186-2.28 3.186-2.28"/><path fill="#188038" d="m52.402 48.479 15.21 12.366V36.217z"/></g><defs><filter id="a" width="100" height="100" x="-2" y="-1" color-interpolation-filters="sRGB" filterUnits="userSpaceOnUse"><feFlood flood-opacity="0" result="BackgroundImageFix"/><feColorMatrix in="SourceAlpha" result="hardAlpha" values="0 0 0 0 0 0 0 0 0 0 0 0 0 0 0 0 0 0 127 0"/><feOffset dy="1"/><feGaussianBlur stdDeviation="1"/><feColorMatrix values="0 0 0 0 0.0627451 0 0 0 0 0.0941176 0 0 0 0 0.156863 0 0 0 0.05 0"/><feBlend in2="BackgroundImageFix" result="effect1_dropShadow_8_27824"/><feBlend in="SourceGraphic" in2="effect1_dropShadow_8_27824" result="shape"/></filter></defs></svg>