<svg xmlns="http://www.w3.org/2000/svg" width="141" height="46" fill="none" viewBox="0 0 141 46"><path fill="#ff302f" d="m135.825 28.112 3.889 2.593c-1.262 1.86-4.281 5.049-9.501 5.049-6.482 0-11.309-5.015-11.309-11.394 0-6.789 4.879-11.394 10.763-11.394 5.919 0 8.819 4.708 9.757 7.249l.512 1.296-15.249 6.312c1.159 2.285 2.968 3.445 5.526 3.445 2.559 0 4.333-1.262 5.612-3.156m-11.957-4.11 10.183-4.23c-.563-1.416-2.235-2.422-4.23-2.422-2.542 0-6.073 2.251-5.953 6.652"/><path fill="#20b15a" d="M111.553 1.35h4.912v33.364h-4.912z"/><path fill="#3686f7" d="M103.81 13.853h4.742v20.264c0 8.409-4.964 11.871-10.832 11.871-5.526 0-8.852-3.718-10.097-6.737l4.35-1.808c.784 1.859 2.677 4.06 5.748 4.06 3.769 0 6.089-2.338 6.089-6.704V33.16h-.171c-1.125 1.365-3.275 2.593-6.004 2.593-5.697 0-10.916-4.964-10.916-11.36 0-6.43 5.22-11.445 10.916-11.445 2.712 0 4.879 1.21 6.004 2.541h.171zm.341 10.541c0-4.025-2.678-6.96-6.09-6.96-3.445 0-6.345 2.935-6.345 6.96 0 3.974 2.9 6.857 6.346 6.857 3.411.017 6.089-2.883 6.089-6.857"/><path fill="#ff302f" d="M59.751 24.309c0 6.566-5.117 11.394-11.394 11.394s-11.394-4.845-11.394-11.394c0-6.602 5.117-11.411 11.394-11.411s11.394 4.81 11.394 11.41m-4.98 0c0-4.094-2.968-6.908-6.414-6.908s-6.413 2.814-6.413 6.908c0 4.06 2.967 6.908 6.413 6.908s6.413-2.849 6.413-6.908"/><path fill="#ffba40" d="M84.638 24.36c0 6.567-5.117 11.394-11.394 11.394S61.85 30.927 61.85 24.36c0-6.601 5.117-11.394 11.394-11.394s11.394 4.776 11.394 11.394m-4.998 0c0-4.094-2.968-6.908-6.413-6.908s-6.414 2.814-6.414 6.908c0 4.06 2.968 6.908 6.414 6.908 3.462 0 6.413-2.866 6.413-6.908"/><path fill="#3686f7" d="M18.234 30.756c-7.147 0-12.741-5.765-12.741-12.912S11.087 4.932 18.234 4.932c3.855 0 6.67 1.518 8.75 3.463l3.429-3.429c-2.9-2.78-6.772-4.895-12.179-4.895C8.444.07.205 8.053.205 17.844c0 9.79 8.239 17.774 18.03 17.774 5.287 0 9.278-1.74 12.4-4.981 3.207-3.207 4.196-7.71 4.196-11.36 0-1.143-.137-2.32-.29-3.19H18.234v4.742H29.85c-.341 2.968-1.28 4.998-2.66 6.38-1.672 1.688-4.316 3.547-8.956 3.547"/></svg>