<svg xmlns="http://www.w3.org/2000/svg" width="30" height="28" fill="none" viewBox="0 0 30 28"><path fill="#fff" d="M27.973 1.747A4.2 4.2 0 0 0 24.947.472L24.906.47l-.093.002h-.004a4.2 4.2 0 0 0-3.186 1.572L14.788 8.69 7.557 1.66A4.2 4.2 0 0 0 4.56.471h-.02A4.21 4.21 0 0 0 .327 4.68v18.99a4.211 4.211 0 1 0 8.422 0v-9.104l2.51 2.438q.197.289.448.548a4.2 4.2 0 0 0 3.08 1.275 4.2 4.2 0 0 0 3.527-1.823l2.38-2.313v8.979a4.21 4.21 0 1 0 8.422 0V5.303a4.2 4.2 0 0 0-1.144-3.556"/><path fill="url(#a)" d="M4.57 27.881a4.21 4.21 0 0 1-4.21-4.21V4.68a4.211 4.211 0 1 1 8.422 0v18.99a4.21 4.21 0 0 1-4.212 4.21" opacity=".8"/><path fill="url(#b)" d="M24.938 27.881a4.21 4.21 0 0 1-4.211-4.21V4.68a4.21 4.21 0 1 1 8.422 0v18.99a4.21 4.21 0 0 1-4.211 4.21" opacity=".8"/><path fill="url(#c)" d="M17.899 17.553a4.21 4.21 0 0 1-5.955.085L1.72 7.702a4.211 4.211 0 0 1 5.869-6.04l10.224 9.936a4.21 4.21 0 0 1 .086 5.955" opacity=".8"/><path fill="url(#d)" d="M29.133 24.053V4.299S28.673.929 24.845.47c0 0-3.676 0-4.135 3.982-.46 3.982 1.684 6.89 3.216 8.116 1.531 1.225 5.512 4.747 5.207 11.485" opacity=".8"/><path fill="url(#e)" d="M.314 24.053V4.299S.773.929 4.602.47c0 0 3.675 0 4.135 3.982s-1.685 6.89-3.216 8.116S.007 17.315.314 24.053" opacity=".8"/><path fill="url(#f)" d="M11.74 17.553a4.21 4.21 0 0 0 5.955.085l10.224-9.936a4.211 4.211 0 0 0-5.87-6.04l-10.224 9.936a4.21 4.21 0 0 0-.085 5.955" opacity=".8"/><defs><linearGradient id="a" x1="4.57" x2="4.57" y1=".47" y2="27.881" gradientUnits="userSpaceOnUse"><stop offset="0" stop-color="#82d8f1"/><stop offset="1" stop-color="#d1ffff"/></linearGradient><linearGradient id="b" x1="24.937" x2="24.937" y1=".47" y2="27.881" gradientUnits="userSpaceOnUse"><stop offset="0" stop-color="#82d8f1"/><stop offset="1" stop-color="#d1ffff"/></linearGradient><linearGradient id="c" x1=".443" x2="19.09" y1="9.65" y2="9.65" gradientUnits="userSpaceOnUse"><stop offset="0" stop-color="#648bf2"/><stop offset=".501" stop-color="#05daef"/><stop offset="1" stop-color="#fdd2ff"/></linearGradient><linearGradient id="d" x1="24.898" x2="24.898" y1=".47" y2="24.053" gradientUnits="userSpaceOnUse"><stop offset="0" stop-color="#707af5"/><stop offset="1" stop-color="#a9f6fc"/></linearGradient><linearGradient id="e" x1="4.548" x2="4.548" y1=".47" y2="24.053" gradientUnits="userSpaceOnUse"><stop offset="0" stop-color="#707af5"/><stop offset="1" stop-color="#a9f6fc"/></linearGradient><linearGradient id="f" x1="19.872" x2="19.872" y1="18.829" y2=".47" gradientUnits="userSpaceOnUse"><stop offset="0" stop-color="#ffd1ff"/><stop offset="1" stop-color="#a553e6"/></linearGradient></defs></svg>