<svg xmlns="http://www.w3.org/2000/svg" xml:space="preserve" viewBox="0 0 1210 590"><path d="M696.52 203v47.4c0 6.16-3.44 9.6-9.6 9.6h-9.29c-6.16 0-9.6-3.45-9.6-9.6v-48.86c0-14.93-6.37-21.61-20.15-21.61s-18.9 6.68-18.9 21.61v48.86c0 6.16-3.45 9.6-9.6 9.6h-9.19c-6.16 0-9.6-3.45-9.6-9.6v-48.86c0-14.93-5.12-21.61-18.9-21.61s-20.15 6.68-20.15 21.61v48.86c0 6.16-3.45 9.6-9.61 9.6h-9.29c-6.16 0-9.61-3.45-9.61-9.6V203c0-34.87 18.06-47.5 46.15-47.5 18.58 0 29.44 5.32 35.6 14.72 6.05-9.4 17.02-14.72 35.5-14.72 28.18 0 46.24 12.63 46.24 47.5m94.47 15.14-44.16 4.59c3.76 11.69 13.26 15.87 27.14 15.87 6.79 0 14.93-1.15 23.91-3.34 6.79-1.57 10.86 1.36 10.86 8.14v3.13c0 5.64-2.61 9.29-8.14 10.75-11.28 3.03-21.92 4.59-31.74 4.59-31.63 0-52.83-17.23-52.83-53.14 0-33.93 17.96-53.24 53.04-53.24 29.44 0 46.88 13.78 46.88 39.88-.01 14.62-6.17 20.78-24.96 22.77m-2.51-25.48c0-9.92-6.05-15.24-19.42-15.24-14.51 0-22.24 6.58-23.8 24.22l36.02-3.65c6.05-.63 7.2-1.78 7.2-5.33m118.91 25.48-44.16 4.59c3.76 11.69 13.26 15.87 27.14 15.87 6.79 0 14.93-1.15 23.91-3.34 6.79-1.57 10.86 1.36 10.86 8.14v3.13c0 5.64-2.61 9.29-8.14 10.75-11.28 3.03-21.92 4.59-31.74 4.59-31.63 0-52.83-17.23-52.83-53.14 0-33.93 17.96-53.24 53.04-53.24 29.44 0 46.88 13.78 46.88 39.88-.01 14.62-6.17 20.78-24.96 22.77m-2.51-25.48c0-9.92-6.05-15.24-19.42-15.24-14.51 0-22.24 6.58-23.8 24.22l36.02-3.65c6.05-.63 7.2-1.78 7.2-5.33m104.08-11.48h-28.4v40.92c0 10.65 4.7 15.14 16.18 15.14 5.53 0 9.08-1.15 12.74-1.15 6.47 0 8.98 2.51 8.98 7.62v5.22c0 5.32-2.51 9.19-7.73 10.23-33.2 7.93-59.72-.52-59.72-37.06v-78.93c0-6.16 3.45-9.6 9.61-9.6h10.33c6.16 0 9.61 3.45 9.61 9.6v14.2h28.4c6.16 0 9.61 3.45 9.61 9.6v4.59c0 6.17-3.45 9.62-9.61 9.62M696.52 396.91v47.4c0 6.16-3.44 9.6-9.6 9.6h-9.29c-6.16 0-9.6-3.45-9.6-9.6v-48.86c0-14.93-6.37-21.61-20.15-21.61s-18.9 6.68-18.9 21.61v48.86c0 6.16-3.45 9.6-9.6 9.6h-9.19c-6.16 0-9.6-3.45-9.6-9.6v-48.86c0-14.93-5.12-21.61-18.9-21.61s-20.15 6.68-20.15 21.61v48.86c0 6.16-3.45 9.6-9.61 9.6h-9.29c-6.16 0-9.61-3.45-9.61-9.6v-47.4c0-34.87 18.06-47.5 46.15-47.5 18.58 0 29.44 5.32 35.6 14.72 6.05-9.4 17.02-14.72 35.5-14.72 28.18 0 46.24 12.63 46.24 47.5m94.47 15.14-44.16 4.59c3.76 11.69 13.26 15.87 27.14 15.87 6.79 0 14.93-1.15 23.91-3.34 6.79-1.57 10.86 1.36 10.86 8.14v3.13c0 5.64-2.61 9.29-8.14 10.75-11.28 3.03-21.92 4.59-31.74 4.59-31.63 0-52.83-17.23-52.83-53.14 0-33.93 17.96-53.24 53.04-53.24 29.44 0 46.88 13.78 46.88 39.88-.01 14.63-6.17 20.78-24.96 22.77m-2.51-25.48c0-9.92-6.05-15.24-19.42-15.24-14.51 0-22.24 6.58-23.8 24.22l36.02-3.65c6.05-.63 7.2-1.78 7.2-5.33m209.63 10.34v47.4c0 6.16-3.44 9.6-9.6 9.6h-9.29c-6.16 0-9.6-3.45-9.6-9.6v-48.86c0-14.93-6.37-21.61-20.15-21.61s-18.9 6.68-18.9 21.61v48.86c0 6.16-3.45 9.6-9.6 9.6h-9.19c-6.16 0-9.6-3.45-9.6-9.6v-48.86c0-14.93-5.12-21.61-18.9-21.61s-20.15 6.68-20.15 21.61v48.86c0 6.16-3.45 9.6-9.61 9.6h-9.29c-6.16 0-9.61-3.45-9.61-9.6v-47.4c0-34.87 18.06-47.5 46.15-47.5 18.58 0 29.44 5.32 35.6 14.72 6.05-9.4 17.02-14.72 35.5-14.72 28.18 0 46.24 12.63 46.24 47.5m19.51 5.74c0-33.93 18.69-53.24 52.83-53.24s52.83 19.31 52.83 53.24c0 33.83-18.69 53.14-52.83 53.14s-52.83-19.31-52.83-53.14m76.21 0c0-20.25-7.73-28.81-23.39-28.81s-23.39 8.56-23.39 28.81c0 20.04 7.73 28.71 23.39 28.71s23.39-8.66 23.39-28.71m-648.9-247.67c-10.96-11.28-25.52-16.92-40.1-16.9-.18 0-.37-.01-.55-.01-.41 0-.82.02-1.23.03H403c-17.07.39-32.25 8.43-42.23 20.84L270.15 247l-95.84-93.15c-11.06-10.75-25.43-15.99-39.73-15.78-.09 0-.18-.01-.27-.01-30.83 0-55.82 24.99-55.82 55.82v251.7c0 30.83 24.99 55.82 55.82 55.82s55.82-24.99 55.82-55.82V324.91l33.26 32.32c1.75 2.54 3.73 4.98 5.95 7.26 11.14 11.46 26 17.1 40.81 16.9 14.81.2 29.67-5.44 40.81-16.9a56.4 56.4 0 0 0 5.95-7.26l31.55-30.66v119.01c0 30.83 24.99 55.82 55.82 55.82s55.82-24.99 55.82-55.82V202.12c2.47-16.62-2.55-34.16-15.17-47.14" style="fill:#fff"/><linearGradient id="a" x1="134.728" x2="134.728" y1="138.065" y2="501.405" gradientUnits="userSpaceOnUse"><stop offset="0" style="stop-color:#82d8f1"/><stop offset="1" style="stop-color:#d1ffff"/></linearGradient><path d="M134.73 501.41c-30.83 0-55.82-24.99-55.82-55.82v-251.7c0-30.83 24.99-55.82 55.82-55.82s55.82 24.99 55.82 55.82v251.7c0 30.82-24.99 55.82-55.82 55.82" style="opacity:.8;fill:url(#a)"/><linearGradient id="b" x1="404.696" x2="404.696" y1="138.065" y2="501.405" gradientUnits="userSpaceOnUse"><stop offset="0" style="stop-color:#82d8f1"/><stop offset="1" style="stop-color:#d1ffff"/></linearGradient><path d="M404.7 501.41c-30.83 0-55.82-24.99-55.82-55.82v-251.7c0-30.83 24.99-55.82 55.82-55.82s55.82 24.99 55.82 55.82v251.7c0 30.82-24.99 55.82-55.82 55.82" style="opacity:.8;fill:url(#b)"/><linearGradient id="c" x1="79.999" x2="327.167" y1="259.74" y2="259.74" gradientUnits="userSpaceOnUse"><stop offset="0" style="stop-color:#648bf2"/><stop offset=".501" style="stop-color:#05daef"/><stop offset="1" style="stop-color:#fdd2ff"/></linearGradient><path d="M311.38 364.5c-21.49 22.11-56.83 22.61-78.93 1.13L96.92 233.92c-22.11-21.49-22.61-56.83-1.13-78.93 21.49-22.11 56.83-22.61 78.93-1.13l135.53 131.71c22.11 21.48 22.61 56.82 1.13 78.93" style="opacity:.8;fill:url(#c)"/><linearGradient id="d" x1="404.166" x2="404.166" y1="138.065" y2="450.659" gradientUnits="userSpaceOnUse"><stop offset="0" style="stop-color:#707af5"/><stop offset="1" style="stop-color:#a9f6fc"/></linearGradient><path d="M460.3 450.66V188.81s-6.09-44.66-56.84-50.75c0 0-48.72 0-54.81 52.78s22.33 91.34 42.63 107.58 73.07 62.93 69.02 152.24" style="opacity:.8;fill:url(#d)"/><linearGradient id="e" x1="2390.276" x2="2390.276" y1="138.065" y2="450.659" gradientTransform="matrix(-1 0 0 1 2524.697 0)" gradientUnits="userSpaceOnUse"><stop offset="0" style="stop-color:#707af5"/><stop offset="1" style="stop-color:#a9f6fc"/></linearGradient><path d="M78.29 450.66V188.81s6.09-44.66 56.84-50.75c0 0 48.72 0 54.81 52.78s-22.33 91.34-42.63 107.58-73.08 62.93-69.02 152.24" style="opacity:.8;fill:url(#e)"/><linearGradient id="f" x1="337.552" x2="337.552" y1="381.416" y2="138.065" gradientUnits="userSpaceOnUse"><stop offset="0" style="stop-color:#ffd1ff"/><stop offset="1" style="stop-color:#a553e6"/></linearGradient><path d="M229.76 364.5c21.49 22.11 56.83 22.61 78.93 1.13l135.53-131.71c22.11-21.49 22.61-56.83 1.13-78.93-21.49-22.11-56.83-22.61-78.93-1.13l-135.53 131.7c-22.11 21.49-22.62 56.83-1.13 78.94" style="opacity:.8;fill:url(#f)"/></svg>