<svg xmlns="http://www.w3.org/2000/svg" width="160" height="36" fill="none" viewBox="0 0 160 36"><g clip-path="url(#a)"><path fill="#706d6e" d="M160.001 16.265v-2.814h-3.494V9.078l-.118.036-3.282 1.004-.065.02v3.314h-5.18v-1.846c0-.86.193-1.517.571-1.956.377-.434.915-.654 1.601-.654.494 0 1.005.116 1.519.345l.129.058V6.434l-.061-.022c-.48-.172-1.132-.26-1.941-.26-1.019 0-1.945.223-2.753.662a4.7 4.7 0 0 0-1.889 1.868c-.444.798-.669 1.72-.669 2.74v2.03h-2.433v2.813h2.433V28.12h3.493V16.265h5.18V23.8c0 3.102 1.464 4.674 4.35 4.674.474 0 .973-.055 1.483-.164.519-.112.872-.224 1.08-.343l.046-.027V25.1l-.142.094q-.286.191-.703.307-.419.117-.689.117c-.677 0-1.177-.182-1.487-.542-.314-.363-.473-.997-.473-1.884v-6.926zm-25.865 9.352c-1.268 0-2.267-.42-2.972-1.248-.708-.832-1.068-2.02-1.068-3.527 0-1.555.36-2.772 1.069-3.62.704-.84 1.694-1.268 2.942-1.268 1.212 0 2.176.408 2.866 1.213.694.81 1.046 2.017 1.046 3.59 0 1.593-.331 2.817-.984 3.635-.648.813-1.624 1.225-2.899 1.225m.155-12.519c-2.418 0-4.339.709-5.709 2.107s-2.063 3.332-2.063 5.75c0 2.297.677 4.144 2.014 5.49s3.155 2.028 5.405 2.028c2.344 0 4.227-.718 5.596-2.136 1.369-1.415 2.063-3.332 2.063-5.693 0-2.333-.651-4.194-1.935-5.53-1.285-1.338-3.092-2.016-5.371-2.016m-13.404 0c-1.645 0-3.006.42-4.046 1.25-1.045.835-1.576 1.93-1.576 3.255 0 .688.115 1.3.34 1.819.227.52.578.979 1.044 1.363.463.382 1.176.782 2.123 1.188.795.327 1.389.604 1.766.823q.553.321.777.638c.143.205.216.485.216.831 0 .986-.738 1.465-2.256 1.465-.563 0-1.206-.117-1.91-.35a7.2 7.2 0 0 1-1.955-.99l-.145-.105v3.363l.053.025c.495.228 1.118.42 1.852.572a10 10 0 0 0 1.978.228c1.785 0 3.223-.422 4.272-1.257 1.055-.84 1.591-1.961 1.591-3.332 0-.989-.289-1.837-.856-2.52-.564-.679-1.543-1.301-2.908-1.852-1.087-.436-1.784-.798-2.071-1.076-.277-.27-.418-.65-.418-1.13 0-.427.174-.769.53-1.046.359-.278.859-.42 1.487-.42.581 0 1.177.093 1.769.273a5.7 5.7 0 0 1 1.545.716l.143.098v-3.19l-.055-.024c-.4-.171-.928-.318-1.569-.437a9.6 9.6 0 0 0-1.721-.178m-14.728 12.52c-1.267 0-2.267-.421-2.971-1.25-.709-.831-1.068-2.018-1.068-3.526 0-1.555.359-2.772 1.068-3.62.705-.84 1.694-1.268 2.943-1.268 1.211 0 2.175.408 2.866 1.213.694.81 1.046 2.017 1.046 3.59 0 1.593-.332 2.817-.985 3.635-.648.813-1.623 1.225-2.899 1.225m.156-12.52c-2.419 0-4.34.709-5.709 2.107-1.37 1.398-2.064 3.332-2.064 5.75 0 2.298.678 4.144 2.014 5.49 1.337 1.346 3.155 2.028 5.405 2.028 2.344 0 4.228-.718 5.597-2.136 1.369-1.415 2.063-3.332 2.063-5.693 0-2.333-.652-4.194-1.936-5.53-1.285-1.338-3.092-2.016-5.37-2.016M93.24 15.992v-2.54h-3.45v14.667h3.45v-7.503c0-1.276.29-2.324.86-3.116.564-.782 1.315-1.178 2.232-1.178.31 0 .659.051 1.037.152q.563.152.805.326l.144.105v-3.479l-.055-.024c-.322-.136-.776-.205-1.352-.205a3.54 3.54 0 0 0-2.307.827c-.583.482-1.005 1.143-1.327 1.968zm-9.63-2.894c-1.582 0-2.994.34-4.195 1.009a6.8 6.8 0 0 0-2.767 2.845c-.63 1.215-.95 2.633-.95 4.216 0 1.385.31 2.657.923 3.778a6.5 6.5 0 0 0 2.582 2.61c1.098.609 2.367.917 3.772.917 1.64 0 3.04-.328 4.162-.974l.045-.026v-3.161l-.145.106a6.5 6.5 0 0 1-1.688.879c-.61.213-1.166.32-1.653.32-1.354 0-2.44-.424-3.23-1.259-.79-.836-1.191-2.01-1.191-3.488 0-1.487.418-2.691 1.242-3.58.821-.886 1.91-1.335 3.236-1.335 1.134 0 2.24.383 3.285 1.142l.144.105v-3.33l-.046-.027c-.394-.22-.93-.402-1.597-.54a9.5 9.5 0 0 0-1.928-.207m-10.289.354h-3.45v14.667h3.45zm-1.69-6.249c-.568 0-1.063.193-1.47.576a1.9 1.9 0 0 0-.616 1.439c0 .562.205 1.037.61 1.41.402.373.898.563 1.476.563s1.076-.19 1.483-.562c.41-.374.617-.85.617-1.411 0-.55-.201-1.03-.6-1.423s-.902-.592-1.5-.592m-8.608 5.166v15.75h3.52V7.652H61.67l-6.194 15.202-6.012-15.202h-5.071V28.12h3.309V12.368h.113l6.348 15.751h2.497l6.249-15.75z"/><path fill="#f1511b" d="M16.233 17.044H.002V.813h16.231z"/><path fill="#80cc28" d="M34.153 17.044H17.922V.813h16.23z"/><path fill="#00adef" d="M16.233 34.97H.002V18.74h16.23z"/><path fill="#fbbc09" d="M34.153 34.97H17.922V18.74h16.23z"/></g><defs><clipPath id="a"><path fill="#fff" d="M0 .813h160v34.375H0z"/></clipPath></defs></svg>