<svg xmlns="http://www.w3.org/2000/svg" width="25" height="24" fill="none" viewBox="0 0 25 24"><g clip-path="url(#a)"><rect width="15" height="21" x="8" y="1.5" fill="#1066b5" rx="1.5"/><rect width="15" height="21" x="8" y="1.5" fill="url(#b)" rx="1.5"/><path fill="#32a9e7" d="M8 3.75h7.5v7.5H8z"/><path fill="#167eb4" d="M8 11.25h7.5v7.5H8z"/><path fill="#32a9e7" d="M15.5 11.25H23v7.5h-7.5z"/><path fill="#58d9fd" d="M15.5 3.75H23v7.5h-7.5z"/><mask id="d" width="19" height="13" x="6" y="10" maskUnits="userSpaceOnUse" style="mask-type:alpha"><path fill="url(#c)" d="M6.5 10.5H23a1.5 1.5 0 0 1 1.5 1.5v9a1.5 1.5 0 0 1-1.5 1.5H8A1.5 1.5 0 0 1 6.5 21z"/></mask><g mask="url(#d)"><path fill="#135298" d="M24.5 10.5v3H23v-3z"/><path fill="url(#e)" d="M24.5 22.5V12L5.75 22.5z"/><path fill="url(#f)" d="M6.5 22.5V12l18.75 10.5z"/></g><path fill="#000" fill-opacity=".3" d="M6.5 9a2.25 2.25 0 0 1 2.25-2.25h4.5A2.25 2.25 0 0 1 15.5 9v9a2.25 2.25 0 0 1-2.25 2.25H6.5z"/><rect width="13.5" height="13.5" x=".5" y="5.25" fill="url(#g)" rx="1.5"/><path fill="#fff" d="M11 12.052v-.125c0-2.16-1.555-3.677-3.738-3.677-2.196 0-3.762 1.527-3.762 3.698v.125c0 2.16 1.555 3.677 3.75 3.677 2.184 0 3.75-1.527 3.75-3.698m-1.768.02c0 1.434-.807 2.296-1.97 2.296s-1.982-.883-1.982-2.316v-.125c0-1.433.807-2.295 1.97-2.295 1.151 0 1.982.883 1.982 2.316z"/></g><defs><linearGradient id="b" x1="8" x2="23" y1="12" y2="12" gradientUnits="userSpaceOnUse"><stop stop-color="#064484"/><stop offset="1" stop-color="#0f65b5"/></linearGradient><linearGradient id="c" x1="6.5" x2="24.5" y1="20.077" y2="20.077" gradientUnits="userSpaceOnUse"><stop stop-color="#1b366f"/><stop offset="1" stop-color="#2657b0"/></linearGradient><linearGradient id="e" x1="24.5" x2="6.5" y1="17.25" y2="17.25" gradientUnits="userSpaceOnUse"><stop stop-color="#44dcfd"/><stop offset=".453" stop-color="#259ed0"/></linearGradient><linearGradient id="f" x1="6.5" x2="24.5" y1="17.25" y2="17.25" gradientUnits="userSpaceOnUse"><stop stop-color="#259ed0"/><stop offset="1" stop-color="#44dcfd"/></linearGradient><linearGradient id="g" x1=".5" x2="14" y1="12" y2="12" gradientUnits="userSpaceOnUse"><stop stop-color="#064484"/><stop offset="1" stop-color="#0f65b5"/></linearGradient><clipPath id="a"><path fill="#fff" d="M.5 0h24v24H.5z"/></clipPath></defs></svg>