<svg xmlns="http://www.w3.org/2000/svg" width="150" height="42" fill="none" viewBox="0 0 150 42"><g fill="#000" clip-path="url(#a)"><path d="M46.709 20.217c0 6.65 4.271 11.288 10.19 11.288s10.19-4.637 10.19-11.288-4.271-11.288-10.19-11.288-10.19 4.637-10.19 11.288m16.475 0c0 4.76-2.594 7.84-6.285 7.84s-6.285-3.08-6.285-7.84 2.593-7.84 6.285-7.84c3.691 0 6.285 3.08 6.285 7.84m14.9 11.288c4.485 0 7.048-3.783 7.048-8.328 0-4.546-2.563-8.33-7.048-8.33-2.074 0-3.6.824-4.607 2.014v-1.708h-3.66V36.66h3.66v-7.17c1.007 1.19 2.533 2.014 4.607 2.014m-4.698-8.786c0-3.02 1.708-4.668 3.966-4.668 2.654 0 4.088 2.075 4.088 5.126 0 3.05-1.434 5.125-4.088 5.125-2.258 0-3.966-1.678-3.966-4.637zm21.655 8.787c3.204 0 5.736-1.678 6.865-4.485l-3.143-1.19c-.488 1.648-1.922 2.563-3.722 2.563-2.349 0-3.996-1.678-4.27-4.423h11.226v-1.22c0-4.394-2.47-7.902-7.108-7.902s-7.627 3.63-7.627 8.329c0 4.942 3.203 8.328 7.78 8.328m-.183-13.576c2.319 0 3.417 1.525 3.448 3.295h-7.353c.55-2.166 2.014-3.295 3.905-3.295m9.883 13.241h3.661v-9.397c0-2.288 1.678-3.508 3.326-3.508 2.013 0 2.806 1.433 2.806 3.417v9.488h3.661V20.614c0-3.448-2.013-5.766-5.369-5.766-2.075 0-3.509.945-4.424 2.013v-1.708h-3.661zm24.177-21.906-8.298 21.905h3.875l1.861-5.003h9.457l1.892 5.003h3.935l-8.298-21.905zm2.136 4.332 3.478 9.153h-6.895zm16.872-4.268h-3.906v21.905h3.906zM37.76 17.31c.924-2.77.606-5.805-.87-8.324a10.25 10.25 0 0 0-11.04-4.917A10.14 10.14 0 0 0 18.208.66a10.25 10.25 0 0 0-9.776 7.096 10.14 10.14 0 0 0-6.777 4.915 10.25 10.25 0 0 0 1.26 12.018 10.13 10.13 0 0 0 .872 8.324 10.25 10.25 0 0 0 11.039 4.917 10.13 10.13 0 0 0 7.643 3.407 10.25 10.25 0 0 0 9.78-7.101 10.14 10.14 0 0 0 6.778-4.916 10.25 10.25 0 0 0-1.264-12.014zM22.47 38.68a7.6 7.6 0 0 1-4.88-1.765c.063-.033.171-.093.241-.136l8.1-4.678c.414-.235.669-.676.666-1.153V19.53l3.423 1.977a.12.12 0 0 1 .067.094v9.456a7.63 7.63 0 0 1-7.616 7.623M6.094 31.683a7.6 7.6 0 0 1-.909-5.108l.24.144 8.1 4.678c.41.24.92.24 1.331 0l9.889-5.71v3.953a.13.13 0 0 1-.049.106l-8.187 4.727a7.63 7.63 0 0 1-10.414-2.79zM3.96 14.004a7.6 7.6 0 0 1 3.967-3.343l-.003.28v9.357c-.003.476.251.917.664 1.152l9.889 5.709-3.423 1.976a.12.12 0 0 1-.116.01l-8.189-4.73a7.63 7.63 0 0 1-2.79-10.41zm28.126 6.545-9.888-5.71 3.423-1.976a.12.12 0 0 1 .116-.01l8.189 4.727a7.625 7.625 0 0 1-1.177 13.757V21.7a1.32 1.32 0 0 0-.661-1.151zm3.407-5.128-.24-.144-8.1-4.678a1.32 1.32 0 0 0-1.331 0l-9.889 5.71v-3.953a.13.13 0 0 1 .049-.106l8.187-4.723a7.622 7.622 0 0 1 11.322 7.894zm-21.42 7.046-3.425-1.977a.12.12 0 0 1-.066-.094V10.94a7.624 7.624 0 0 1 12.502-5.855c-.062.033-.17.092-.24.136l-8.1 4.678a1.32 1.32 0 0 0-.666 1.151l-.006 11.414zm1.86-4.01 4.404-2.543 4.404 2.542v5.086l-4.404 2.543-4.405-2.543z"/></g><defs><clipPath id="a"><path fill="#fff" d="M0 .661h150V41.34H0z"/></clipPath></defs></svg>