<svg xmlns="http://www.w3.org/2000/svg" width="96" height="96" fill="none" viewBox="0 0 96 96"><path fill="url(#a)" d="M54.75 45.334a2 2 0 0 1 2-2H82a2 2 0 0 1 2 2v16.041C84 69.452 77.452 76 69.375 76S54.75 69.452 54.75 61.375z"/><path fill="url(#b)" d="M32.25 40.667a2 2 0 0 1 2-2h32a2 2 0 0 1 2 2V65c0 9.941-8.059 18-18 18s-18-8.059-18-18z"/><ellipse cx="72.75" cy="31.666" fill="#34439e" rx="6.75" ry="7"/><ellipse cx="72.75" cy="31.666" fill="url(#c)" rx="6.75" ry="7"/><ellipse cx="52.5" cy="27" fill="url(#d)" rx="9" ry="9.333"/><mask id="g" width="37" height="70" x="32" y="13" maskUnits="userSpaceOnUse" style="mask-type:alpha"><path fill="url(#e)" d="M50.25 36.333c6.213 0 11.25-5.223 11.25-11.666S56.463 13 50.25 13 39 18.223 39 24.667c0 6.443 5.037 11.666 11.25 11.666"/><path fill="url(#f)" d="M35.008 38.667c-1.523 0-2.758 1.28-2.758 2.86v22.806c0 10.31 8.059 18.667 18 18.667s18-8.357 18-18.667V41.527c0-1.58-1.235-2.86-2.758-2.86z"/></mask><g mask="url(#g)"><path fill="#000" fill-opacity=".3" d="M27.75 37a3 3 0 0 1 3-3H54a3 3 0 0 1 3 3v36a3 3 0 0 1-3 3H27.75z"/></g><rect width="40.5" height="42" x="12" y="29.334" fill="url(#h)" rx="2"/><path fill="#fff" d="M41.25 38.667h-18v4.28h6.739V62h4.522V42.948h6.739z"/><defs><linearGradient id="a" x1="54.75" x2="84.993" y1="45.053" y2="64.109" gradientUnits="userSpaceOnUse"><stop stop-color="#364088"/><stop offset="1" stop-color="#6e7ee1"/></linearGradient><linearGradient id="b" x1="32.25" x2="68.25" y1="58.276" y2="58.276" gradientUnits="userSpaceOnUse"><stop stop-color="#515fc4"/><stop offset="1" stop-color="#7084ea"/></linearGradient><linearGradient id="c" x1="66" x2="79.352" y1="25.403" y2="34.464" gradientUnits="userSpaceOnUse"><stop stop-color="#364088"/><stop offset="1" stop-color="#6e7ee1"/></linearGradient><linearGradient id="d" x1="46.071" x2="58.13" y1="20.333" y2="33.9" gradientUnits="userSpaceOnUse"><stop stop-color="#4858ae"/><stop offset="1" stop-color="#4e60ce"/></linearGradient><linearGradient id="e" x1="42.214" x2="57.288" y1="16.333" y2="33.291" gradientUnits="userSpaceOnUse"><stop stop-color="#4858ae"/><stop offset="1" stop-color="#4e60ce"/></linearGradient><linearGradient id="f" x1="42.214" x2="57.288" y1="16.333" y2="33.291" gradientUnits="userSpaceOnUse"><stop stop-color="#4858ae"/><stop offset="1" stop-color="#4e60ce"/></linearGradient><linearGradient id="h" x1="12" x2="52.5" y1="50.334" y2="50.334" gradientUnits="userSpaceOnUse"><stop stop-color="#2a3887"/><stop offset="1" stop-color="#4c56b9"/></linearGradient></defs></svg>