<svg xmlns="http://www.w3.org/2000/svg" width="96" height="96" fill="none" viewBox="0 0 96 96"><path fill="#4087fc" d="M6 34.8c0-10.08 0-15.121 1.962-18.972a18 18 0 0 1 7.866-7.866C19.678 6 24.72 6 34.8 6h26.4c10.08 0 15.121 0 18.972 1.962a18 18 0 0 1 7.866 7.866C90 19.678 90 24.72 90 34.8v26.4c0 10.08 0 15.121-1.962 18.972a18 18 0 0 1-7.866 7.866C76.322 90 71.28 90 61.2 90H34.8c-10.08 0-15.121 0-18.972-1.962a18 18 0 0 1-7.866-7.866C6 76.322 6 71.28 6 61.2z"/><path fill="#fff" d="M29.167 33C27.417 33 26 34.599 26 36.571v17.322C26 58.923 29.615 63 34.075 63l18.758-.178c1.75 0 3.167-1.6 3.167-3.572v-17.5c0-5.03-4.29-8.75-8.75-8.75zm31.113 6.819c-1.131 1.119-1.78 2.734-1.78 4.431v7.248c0 1.698.649 3.312 1.78 4.431l7.042 6.202c1.433 1.417 3.678.27 3.678-1.88V35.838c0-2.15-2.245-3.297-3.678-1.88z"/></svg>